<?xml version="1.0" encoding="utf-8"?>
<!DOCTYPE svg PUBLIC "-//W3C//DTD SVG 1.0//EN" "http://www.w3.org/TR/2001/REC-SVG-20010904/DTD/svg10.dtd">
<svg version="1.0" xmlns="http://www.w3.org/2000/svg" width="139px" height="38px" viewBox="0 0 139 38" preserveAspectRatio="xMidYMid meet">
 <g fill="#3c4efe">
  <path d="M6.24 34.94 c-0.06 -0.02 -0.35 -0.12 -0.64 -0.20 -0.29 -0.08 -0.57 -0.20 -0.64 -0.24 -0.06 -0.06 -0.35 -0.27 -0.64 -0.49 -0.36 -0.27 -0.68 -0.66 -0.99 -1.25 l-0.47 -0.86 0 -13 0 -13 0.34 -0.69 c0.42 -0.86 0.98 -1.42 1.94 -1.94 l0.76 -0.41 12.65 0 12.65 0 0.84 0.45 c0.91 0.48 1.43 1.04 1.91 1.99 l0.28 0.58 0 13 0 13 -0.33 0.64 c-0.58 1.13 -0.68 1.28 -0.78 1.28 -0.06 0 -0.17 0.08 -0.27 0.17 -0.09 0.09 -0.50 0.34 -0.91 0.55 l-0.75 0.38 -12.42 0.02 c-6.83 0.01 -12.47 0 -12.54 -0.01z m13.93 -7.82 c0.22 -0.05 0.50 -0.13 0.62 -0.19 0.10 -0.06 0.20 -0.09 0.20 -0.06 0 0.02 0.27 -0.05 0.59 -0.17 1.66 -0.59 3.39 -2.13 4.16 -3.66 0.61 -1.19 0.90 -2.58 0.79 -3.72 -0.07 -0.90 -0.15 -1.40 -0.27 -1.76 -0.09 -0.26 -0.12 -0.35 -0.20 -0.71 -0.08 -0.36 -0.49 -1.15 -1.06 -2.03 -0.44 -0.70 -2.09 -2.45 -2.29 -2.45 -0.05 0 -0.16 -0.07 -0.26 -0.16 -0.37 -0.37 -2.33 -1.25 -3.47 -1.55 -1.10 -0.28 -1.40 -0.31 -3.25 -0.30 -1.98 0 -2.45 0.06 -3.67 0.43 -1.50 0.45 -1.82 0.68 -1.75 1.24 0.02 0.16 0.24 0.73 0.50 1.28 0.27 0.55 0.50 1.20 0.55 1.46 0.21 1.48 0.34 2.24 0.47 2.74 0.03 0.16 0.12 0.62 0.17 1.01 0.05 0.40 0.12 0.77 0.16 0.83 0.03 0.06 0.09 0.28 0.12 0.50 0.03 0.22 0.14 0.87 0.24 1.45 0.10 0.58 0.21 1.20 0.24 1.39 0.03 0.19 0.08 0.37 0.10 0.42 0.03 0.05 0.07 0.26 0.10 0.48 0.02 0.22 0.08 0.52 0.12 0.69 0.03 0.16 0.09 0.52 0.13 0.82 0.13 1.06 0.21 1.20 0.79 1.41 0.85 0.30 2.41 0.68 3.06 0.73 0.75 0.05 2.57 -0.01 3.09 -0.10z"/>
  <path d="M16.34 23.30 c0.12 -0.65 0.31 -1.80 0.45 -2.51 0.13 -0.72 0.34 -1.90 0.47 -2.61 0.30 -1.76 0.30 -1.74 0.73 -1.74 0.96 0.02 2.37 0.65 3.02 1.38 0.41 0.45 0.97 1.48 1.10 2.01 0.24 0.99 -0.17 2.32 -0.97 3.10 -0.43 0.43 -1.85 1.25 -2.25 1.29 -0.09 0.01 -0.30 0.06 -0.47 0.10 -0.16 0.03 -0.75 0.10 -1.29 0.13 l-1 0.06 0.21 -1.21z"/>
  <path d="M109.15 27.60 c-0.58 -0.29 -0.58 -0.30 -0.58 -6.82 0 -6.75 -0.02 -6.53 0.76 -6.79 0.47 -0.15 1.01 0.07 1.24 0.50 0.07 0.14 0.15 0.27 0.16 0.29 0.02 0.02 0.19 -0.06 0.36 -0.17 0.56 -0.36 1.28 -0.59 2.22 -0.70 0.63 -0.07 2.52 0.33 2.59 0.55 0.02 0.07 0.12 0.12 0.21 0.12 0.35 0 1.68 1.29 2.02 1.97 0.48 0.92 0.58 1.43 0.56 2.58 -0.02 0.97 -0.07 1.20 -0.38 1.88 -0.42 0.89 -0.85 1.45 -1.52 1.97 -0.34 0.27 -1.33 0.84 -1.33 0.76 0 -0.03 -0.16 0.02 -0.35 0.12 -0.20 0.10 -0.40 0.16 -0.44 0.13 -0.05 -0.02 -0.30 -0.01 -0.58 0.05 -0.73 0.13 -2.36 -0.21 -3.02 -0.65 -0.14 -0.09 -0.29 -0.16 -0.33 -0.16 -0.03 0 -0.06 0.77 -0.06 1.73 0.01 0.94 0.01 1.85 0 2.03 0 0.22 -0.10 0.37 -0.40 0.55 -0.44 0.28 -0.71 0.30 -1.12 0.09z m5.34 -5.83 c0.68 -0.17 1.35 -0.78 1.76 -1.59 0.28 -0.54 0.41 -1.62 0.22 -1.84 -0.07 -0.08 -0.09 -0.15 -0.05 -0.15 0.05 0 -0.03 -0.20 -0.15 -0.45 -0.28 -0.54 -0.84 -1.12 -1.32 -1.36 -0.44 -0.23 -1.90 -0.36 -2.01 -0.17 -0.05 0.07 -0.19 0.13 -0.31 0.13 -0.43 0 -1.21 0.68 -1.55 1.34 -0.35 0.69 -0.45 1.82 -0.20 2.08 0.07 0.07 0.13 0.21 0.13 0.31 0 0.30 0.63 1.11 1.11 1.40 0.64 0.40 1.56 0.51 2.37 0.31z"/>
  <path d="M48.63 24.01 c-0.41 -0.16 -4.65 -4.52 -4.75 -4.86 -0.16 -0.66 0.62 -1.43 1.29 -1.26 0.16 0.03 1.19 0.96 2.27 2.04 l1.98 1.97 0.55 -0.19 c0.55 -0.17 1.54 -1 1.76 -1.48 0.30 -0.61 0.41 -1.74 0.36 -3.58 -0.05 -1.69 -0.08 -1.96 -0.31 -2.43 -0.36 -0.70 -0.78 -1.13 -1.41 -1.46 -0.63 -0.31 -0.65 -0.33 -2.71 -0.30 l-1.59 0.01 -0.05 0.91 -0.05 0.90 2.06 2.06 c2.17 2.18 2.25 2.32 1.97 3.06 -0.13 0.34 -0.78 0.65 -1.18 0.57 -0.20 -0.03 -1.12 -0.87 -2.62 -2.38 l-2.32 -2.32 0 -2.20 c0 -2.55 0.01 -2.59 1.05 -2.82 0.79 -0.17 4.41 -0.07 5.31 0.16 1.80 0.45 3.07 1.63 3.73 3.46 0.19 0.51 0.22 0.97 0.23 3.25 0.01 2.54 -0.01 2.71 -0.28 3.44 -0.58 1.62 -1.71 2.73 -3.36 3.27 -0.71 0.23 -1.62 0.31 -1.96 0.17z"/>
  <path d="M54.94 24.01 c-0.34 -0.13 -0.63 -0.52 -0.69 -0.89 -0.02 -0.24 0.27 -1.14 1.77 -5.42 0.42 -1.21 1.11 -3.15 1.52 -4.31 0.99 -2.83 0.92 -2.69 1.39 -2.95 0.61 -0.33 1.08 -0.15 1.50 0.56 0.17 0.30 0.31 0.59 0.30 0.64 -0.03 0.08 0.15 0.62 0.41 1.19 0.07 0.16 0.14 0.37 0.15 0.47 0.07 0.36 0.89 2.62 1 2.78 0.07 0.08 0.09 0.17 0.06 0.22 -0.03 0.03 0.01 0.22 0.10 0.41 0.10 0.20 0.20 0.43 0.23 0.54 0.07 0.33 0.85 2.58 0.97 2.80 0.12 0.22 0.57 1.59 0.65 1.94 0.02 0.12 0.09 0.27 0.15 0.35 0.15 0.20 0.16 0.79 0.01 1.14 -0.20 0.48 -0.63 0.71 -1.13 0.62 -0.35 -0.07 -0.80 -0.47 -2.66 -2.31 -1.87 -1.88 -2.24 -2.31 -2.29 -2.65 -0.08 -0.50 0.14 -0.96 0.55 -1.14 0.49 -0.23 0.80 -0.16 1.31 0.27 0.27 0.22 0.50 0.41 0.54 0.41 0.03 0 -0.09 -0.43 -0.29 -0.96 -0.19 -0.54 -0.36 -1.05 -0.38 -1.17 -0.02 -0.10 -0.12 -0.34 -0.22 -0.54 -0.09 -0.19 -0.15 -0.37 -0.12 -0.41 0.03 -0.03 -0.02 -0.19 -0.12 -0.34 -0.10 -0.16 -0.15 -0.33 -0.10 -0.38 0.06 -0.05 0.02 -0.07 -0.07 -0.03 -0.10 0.02 -0.45 0.86 -0.84 1.97 -1 2.89 -2.17 6.19 -2.26 6.46 -0.15 0.38 -0.66 0.87 -0.92 0.86 -0.14 0 -0.37 -0.06 -0.52 -0.12z"/>
  <path d="M68.73 23.98 c-1.89 -0.43 -3.27 -1.71 -3.94 -3.70 -0.26 -0.75 -0.24 -5.31 0.01 -6.24 0.10 -0.37 0.23 -0.70 0.29 -0.72 0.05 -0.02 0.09 -0.14 0.09 -0.27 0 -0.12 0.05 -0.22 0.10 -0.22 0.06 0 0.15 -0.10 0.19 -0.24 0.12 -0.37 1.20 -1.36 1.82 -1.69 0.87 -0.44 1.39 -0.57 2.26 -0.61 2.02 -0.07 3.72 0.87 4.77 2.66 0.54 0.93 0.63 1.53 0.65 4.16 0.01 3.28 -0.21 4.07 -1.49 5.38 -1.28 1.32 -3.07 1.87 -4.76 1.49z m2.36 -2.38 c0.56 -0.28 1.14 -0.84 1.38 -1.29 0.33 -0.63 0.44 -1.71 0.40 -3.65 -0.05 -1.66 -0.08 -1.96 -0.30 -2.38 -0.62 -1.20 -1.56 -1.82 -2.76 -1.83 -0.57 -0.01 -0.83 0.06 -1.42 0.37 -0.75 0.40 -1.15 0.86 -1.42 1.64 -0.13 0.38 -0.20 4.48 -0.07 5.11 0.07 0.40 0.38 0.99 0.72 1.38 0.82 0.92 2.39 1.21 3.49 0.65z"/>
  <path d="M76.65 23.96 c-0.20 -0.08 -0.43 -0.27 -0.50 -0.41 -0.09 -0.19 -0.14 -1.91 -0.14 -6.22 0 -3.29 0.01 -6.09 0.01 -6.24 0.03 -0.75 1.10 -1.10 1.73 -0.56 l0.33 0.28 0.06 4.73 0.06 4.72 3.15 -3.07 c1.74 -1.68 3.24 -3.11 3.37 -3.18 0.49 -0.27 1.33 0.20 1.43 0.78 0.10 0.57 -0.14 0.91 -1.82 2.53 l-1.70 1.64 1.77 1.81 c1.73 1.74 1.77 1.81 1.74 2.24 -0.02 0.33 -0.13 0.54 -0.40 0.78 -0.66 0.58 -0.78 0.52 -3.11 -1.70 l-1.59 -1.50 -1.73 1.70 c-0.94 0.94 -1.77 1.71 -1.84 1.71 -0.07 0 -0.20 0.02 -0.29 0.06 -0.08 0.02 -0.31 -0.02 -0.52 -0.12z"/>
  <path d="M90.66 24.07 c-2.01 -0.47 -2.89 -1.05 -3.81 -2.50 -1.50 -2.37 -0.47 -5.82 2.15 -7.10 1.24 -0.61 2.19 -0.71 3.53 -0.36 0.51 0.13 0.96 0.29 0.97 0.35 0.02 0.07 0.12 0.12 0.21 0.12 0.41 0 1.67 1.32 2.09 2.19 0.48 0.97 0.48 0.97 0.51 1.47 0.01 0.26 0.05 0.50 0.08 0.55 0.09 0.15 -0.31 1.04 -0.55 1.15 -0.12 0.07 -1.66 0.12 -3.70 0.12 -1.91 0 -3.51 0.03 -3.54 0.07 -0.09 0.09 0.41 0.83 0.75 1.08 0.52 0.41 1.06 0.62 1.66 0.63 0.89 0.03 1.31 -0.09 2.01 -0.56 1.03 -0.68 1.61 -0.64 2.06 0.14 0.20 0.35 0.20 0.40 0.01 0.76 -0.31 0.63 -1.26 1.32 -2.26 1.66 -0.57 0.19 -1.78 0.31 -2.16 0.23z m3.08 -6.22 c0.13 -0.08 0.12 -0.16 -0.08 -0.43 -0.31 -0.47 -0.92 -0.98 -1.12 -0.98 -0.09 0 -0.19 -0.06 -0.21 -0.14 -0.03 -0.09 -0.35 -0.14 -0.92 -0.15 -0.72 0 -0.98 0.06 -1.54 0.34 -0.43 0.21 -0.77 0.47 -0.90 0.70 -0.12 0.20 -0.28 0.43 -0.35 0.50 -0.09 0.12 0.38 0.15 2.24 0.19 1.31 0.01 2.45 0.03 2.54 0.06 0.09 0.01 0.24 -0.02 0.34 -0.08z"/>
  <path d="M101.74 24.02 c-1.19 -0.20 -2.23 -0.71 -2.95 -1.48 -2.38 -2.53 -1.66 -6.60 1.43 -8.08 0.90 -0.43 1.06 -0.47 1.98 -0.52 0.73 -0.03 2.41 0.31 2.48 0.52 0.02 0.07 0.14 0.12 0.27 0.12 0.12 0 0.22 0.05 0.22 0.09 0 0.06 0.17 0.20 0.38 0.31 0.61 0.33 1.55 1.68 1.75 2.51 0.03 0.16 0.08 0.31 0.08 0.35 0.01 0.03 0.06 0.29 0.12 0.58 0.10 0.59 -0.12 1.33 -0.48 1.52 -0.12 0.07 -1.69 0.12 -3.78 0.12 l-3.56 0 0.20 0.33 c0.62 0.99 1.39 1.46 2.43 1.46 0.91 0 1.14 -0.07 1.89 -0.56 1.05 -0.70 1.66 -0.64 2.08 0.17 0.16 0.33 0.16 0.38 -0.05 0.78 -0.63 1.21 -2.78 2.06 -4.50 1.78z m3.29 -6.22 c0.16 -0.17 -0.69 -1.12 -1.33 -1.45 -1.13 -0.58 -3.11 -0.02 -3.66 1.05 -0.12 0.21 -0.19 0.40 -0.16 0.43 0.05 0.08 5.07 0.03 5.15 -0.03z"/>
  <path d="M124.25 24.07 c-1.57 -0.36 -2.20 -0.68 -2.97 -1.45 -0.52 -0.52 -1.15 -1.43 -1.21 -1.77 -0.02 -0.08 -0.09 -0.38 -0.19 -0.68 -0.59 -2.10 0.62 -4.68 2.71 -5.70 1.26 -0.62 2.13 -0.71 3.49 -0.37 0.54 0.14 1 0.30 1.01 0.36 0.02 0.07 0.14 0.12 0.26 0.12 0.12 0 0.23 0.03 0.26 0.09 0.02 0.05 0.24 0.26 0.51 0.45 1.57 1.24 2.36 4.01 1.34 4.78 -0.14 0.10 -1.12 0.14 -3.71 0.15 -2.22 0 -3.53 0.05 -3.53 0.12 0 0.06 0.09 0.27 0.21 0.45 0.42 0.70 1.31 1.19 2.17 1.21 0.89 0.03 1.31 -0.09 2.01 -0.56 1.03 -0.68 1.61 -0.64 2.06 0.14 0.20 0.35 0.20 0.40 0.01 0.76 -0.31 0.63 -1.26 1.32 -2.26 1.66 -0.57 0.19 -1.78 0.31 -2.16 0.23z m3.21 -6.34 c0 -0.20 -1.11 -1.28 -1.31 -1.28 -0.10 0 -0.21 -0.06 -0.23 -0.14 -0.03 -0.09 -0.35 -0.14 -0.92 -0.15 -0.72 0 -0.98 0.06 -1.54 0.34 -0.43 0.21 -0.77 0.47 -0.90 0.70 -0.12 0.20 -0.28 0.43 -0.35 0.51 -0.10 0.10 0.42 0.14 2.57 0.14 1.67 0 2.68 -0.05 2.68 -0.12z"/>
  <path d="M131.56 23.99 c-0.63 -0.35 -0.63 -0.33 -0.62 -4.99 0.01 -4.79 0.01 -4.75 0.78 -5 0.55 -0.19 1.06 0.10 1.41 0.79 0.01 0.02 0.16 -0.06 0.34 -0.17 0.93 -0.61 2.51 -0.89 3.04 -0.54 1.01 0.64 0.69 1.83 -0.54 1.98 -0.23 0.02 -0.50 0.08 -0.59 0.12 -0.09 0.05 -0.26 0.08 -0.36 0.09 -0.31 0.03 -1.26 0.77 -1.34 1.04 -0.05 0.14 -0.15 0.29 -0.23 0.36 -0.28 0.22 -0.41 1.39 -0.38 3.58 0.01 2.36 0 2.40 -0.61 2.73 -0.40 0.20 -0.55 0.20 -0.90 0.01z"/>
 </g>
</svg>